<?xml version="1.0" encoding="utf-8"?>
<!-- Generator: Adobe Illustrator 26.0.3, SVG Export Plug-In . SVG Version: 6.00 Build 0)  -->
<svg version="1.1" id="Layer_1" xmlns="http://www.w3.org/2000/svg" xmlns:xlink="http://www.w3.org/1999/xlink" x="0px" y="0px"
	 viewBox="0 0 6388.9 257.2" enable-background="new 0 0 6388.9 257.2" xml:space="preserve">
<path fill="#FFFFFF" d="M0,3.6v250h43.5v-89.2h21.2c56.8,0,93.2-26.3,93.2-81.7c0-50.4-33.8-79.1-92.8-79.1H0z M65.1,130.6H43.5
	V37.4h23c30.6,0,47.1,14,47.1,45.3C113.7,115.5,95.3,130.6,65.1,130.6z M229.3,140.7c11.9-21.9,29.5-33.1,55.8-31.7V68.7
	c-24.5,1.4-44.6,16.2-54.7,39.9h-1.1l-1.1-36h-41.7v180.9h42.8V140.7z M438.4,130.2c0-43.9-22.3-60.4-67.6-60.4
	c-28.4,0-50.7,9-63.7,16.5v35.6c11.5-8.6,36.7-18,58.6-18c20.5,0,29.9,7.2,29.9,26.6v10.1h-6.8c-65.5,0-94.6,21.6-94.6,58.3
	s22.3,57.2,55.4,57.2c25.2,0,36-8.3,44.2-16.9h1.8c0.4,4.7,1.8,10.8,3.2,14.4h41.7c-1.4-14.7-2.2-29.5-2.2-44.2V130.2z M395.6,210.4
	c-5.4,7.9-15.5,14.4-30.6,14.4c-18,0-27-10.8-27-27c0-21.2,14.7-28.8,51.4-28.8h6.1V210.4z M550.5,257.2c19.8,0,33.8-3.6,44.2-11.2
	v-34.9c-10.8,7.6-23.7,12.2-41.7,12.2c-30.6,0-43.2-23.7-43.2-61.2c0-39.2,15.5-59.4,43.5-59.4c16.5,0,32.7,5.8,41.4,11.2V77.7
	c-9-5-24.8-8.6-46-8.6c-54.7,0-83.1,39.2-83.1,94.2C465.6,223.7,493.3,257.2,550.5,257.2z M609.2,72.7v33.8h22.7v92.8
	c0,33.8,19.1,57.9,58.6,57.9c20.9,0,32.7-4.7,32.7-4.7v-34.9c0,0-7.9,5.8-22.3,5.8c-18,0-26.3-10.4-26.3-23.7v-93.2h45V72.7h-45
	V33.1h-42.8v39.6H609.2z M766,50.4c14,0,25.2-9.7,25.2-25.2C791.1,10.1,780,0,766,0c-14,0-24.8,10.1-24.8,25.2
	C741.1,40.6,751.9,50.4,766,50.4z M744.7,72.7v180.9h42.8V72.7H744.7z M901.1,257.2c19.8,0,33.8-3.6,44.2-11.2v-34.9
	c-10.8,7.6-23.7,12.2-41.7,12.2c-30.6,0-43.2-23.7-43.2-61.2c0-39.2,15.5-59.4,43.5-59.4c16.5,0,32.7,5.8,41.4,11.2V77.7
	c-9-5-24.8-8.6-46-8.6c-54.7,0-83.1,39.2-83.1,94.2C816.2,223.7,843.9,257.2,901.1,257.2z M1073,202.5c-7.9,9.7-20.5,18-36,18
	c-15.1,0-21.9-6.5-21.9-20.1V72.7h-42.8v132c0,36,14.4,51.8,49.3,51.8c25.5,0,40.6-9.4,49.3-18h2.2l1.1,15.1h41.7V72.7H1073V202.5z
	 M1194.7,123.7c7.9-9.7,18.7-18,34.2-18c15.1,0,20.1,6.5,20.1,20.1v127.7h42.8V123.7c7.9-9.7,18.7-18,34.2-18
	c15.1,0,20.1,6.5,20.1,20.1v127.7h42.8v-132c0-36-12.6-51.8-47.5-51.8c-27.7,0-44.2,10.8-54.3,23c-6.8-15.8-21.2-23-44.6-23
	c-25.5,0-37.1,9.4-45.7,18h-2.2l-1.1-15.1h-41.7v180.9h42.8V123.7z"/>
</svg>