<?xml version="1.0" encoding="utf-8"?>
<!-- Generator: Adobe Illustrator 26.0.3, SVG Export Plug-In . SVG Version: 6.00 Build 0)  -->
<svg version="1.1" id="Layer_1" xmlns="http://www.w3.org/2000/svg" xmlns:xlink="http://www.w3.org/1999/xlink" x="0px" y="0px" width="200px" height="80px" viewBox="0 0 500 80" enable-background="new 0 0 500 80" xml:space="preserve">
<path d="M0,1.3v87.1h15.2V57.3h7.4c19.8,0,32.5-9.1,32.5-28.4C55,11.3,43.2,1.3,22.7,1.3H0z M22.7,45.5h-7.5V13h8
	c10.7,0,16.4,4.9,16.4,15.8C39.6,40.2,33.2,45.5,22.7,45.5z M79.9,49c4.1-7.6,10.3-11.5,19.4-11v-14c-8.5,0.5-15.5,5.6-19,13.9h-0.4
	l-0.4-12.5H65v63h14.9V49z M152.7,45.4c0-15.3-7.8-21.1-23.6-21.1c-9.9,0-17.7,3.1-22.2,5.8v12.4c4-3,12.8-6.3,20.4-6.3
	c7.1,0,10.4,2.5,10.4,9.3V49h-2.4c-22.8,0-33,7.5-33,20.3s7.8,19.9,19.3,19.9c8.8,0,12.5-2.9,15.4-5.9h0.6c0.1,1.6,0.6,3.8,1.1,5
	h14.5c-0.5-5.1-0.8-10.3-0.8-15.4V45.4z M137.8,73.3c-1.9,2.8-5.4,5-10.7,5c-6.3,0-9.4-3.8-9.4-9.4c0-7.4,5.1-10,17.9-10h2.1V73.3z
	 M191.8,89.6c6.9,0,11.8-1.3,15.4-3.9V73.6c-3.8,2.6-8.3,4.3-14.5,4.3c-10.7,0-15-8.3-15-21.3c0-13.7,5.4-20.7,15.2-20.7
	c5.8,0,11.4,2,14.4,3.9V27.1c-3.1-1.8-8.6-3-16-3c-19,0-28.9,13.7-28.9,32.8C162.2,77.9,171.8,89.6,191.8,89.6z M212.2,25.3v11.8
	h7.9v32.3c0,11.8,6.6,20.2,20.4,20.2c7.3,0,11.4-1.6,11.4-1.6V75.8c0,0-2.8,2-7.8,2c-6.3,0-9.1-3.6-9.1-8.3V37.1h15.7V25.3H235V11.5
	h-14.9v13.8H212.2z M266.8,17.5c4.9,0,8.8-3.4,8.8-8.8c0-5.3-3.9-8.8-8.8-8.8c-4.9,0-8.6,3.5-8.6,8.8
	C258.2,14.2,261.9,17.5,266.8,17.5z M259.4,25.3v63h14.9v-63H259.4z M313.9,89.6c6.9,0,11.8-1.3,15.4-3.9V73.6
	c-3.8,2.6-8.3,4.3-14.5,4.3c-10.7,0-15-8.3-15-21.3c0-13.7,5.4-20.7,15.2-20.7c5.8,0,11.4,2,14.4,3.9V27.1c-3.1-1.8-8.6-3-16-3
	c-19,0-28.9,13.7-28.9,32.8C284.3,77.9,294,89.6,313.9,89.6z M373.8,70.5c-2.8,3.4-7.1,6.3-12.5,6.3c-5.3,0-7.6-2.3-7.6-7V25.3
	h-14.9v46c0,12.5,5,18,17.2,18c8.9,0,14.2-3.3,17.2-6.3h0.8l0.4,5.3h14.5v-63h-14.9V70.5z M416.1,43.1c2.8-3.4,6.5-6.3,11.9-6.3
	c5.3,0,7,2.3,7,7v44.5H450V43.1c2.8-3.4,6.5-6.3,11.9-6.3c5.3,0,7,2.3,7,7v44.5h14.9v-46c0-12.5-4.4-18-16.5-18
	c-9.6,0-15.4,3.8-18.9,8c-2.4-5.5-7.4-8-15.5-8c-8.9,0-12.9,3.3-15.9,6.3h-0.8l-0.4-5.3h-14.5v63h14.9V43.1z"/>
</svg>